<svg xmlns="http://www.w3.org/2000/svg" viewBox="0 0 100 100">
  <defs>
    <linearGradient id="grad" x1="0%" y1="0%" x2="100%" y2="100%">
      <stop offset="0%" style="stop-color:#4F46E5;stop-opacity:1" />
      <stop offset="100%" style="stop-color:#7C3AED;stop-opacity:1" />
    </linearGradient>
  </defs>

  <!-- Building shape representing property/real estate -->
  <rect x="20" y="30" width="25" height="50" fill="url(#grad)" rx="2"/>
  <rect x="55" y="20" width="25" height="60" fill="url(#grad)" rx="2"/>

  <!-- Windows -->
  <rect x="25" y="40" width="6" height="6" fill="white" opacity="0.8"/>
  <rect x="34" y="40" width="6" height="6" fill="white" opacity="0.8"/>
  <rect x="25" y="52" width="6" height="6" fill="white" opacity="0.8"/>
  <rect x="34" y="52" width="6" height="6" fill="white" opacity="0.8"/>
  <rect x="25" y="64" width="6" height="6" fill="white" opacity="0.8"/>
  <rect x="34" y="64" width="6" height="6" fill="white" opacity="0.8"/>

  <rect x="60" y="30" width="6" height="6" fill="white" opacity="0.8"/>
  <rect x="69" y="30" width="6" height="6" fill="white" opacity="0.8"/>
  <rect x="60" y="42" width="6" height="6" fill="white" opacity="0.8"/>
  <rect x="69" y="42" width="6" height="6" fill="white" opacity="0.8"/>
  <rect x="60" y="54" width="6" height="6" fill="white" opacity="0.8"/>
  <rect x="69" y="54" width="6" height="6" fill="white" opacity="0.8"/>
  <rect x="60" y="66" width="6" height="6" fill="white" opacity="0.8"/>
  <rect x="69" y="66" width="6" height="6" fill="white" opacity="0.8"/>

  <!-- Ground -->
  <rect x="15" y="80" width="70" height="3" fill="#4F46E5" opacity="0.3"/>
</svg>
